<?xml version="1.0" encoding="utf-8" ?>
<svg baseProfile="full" height="531.49605" version="1.1" width="1098.42517" xmlns="http://www.w3.org/2000/svg" xmlns:ev="http://www.w3.org/2001/xml-events" xmlns:xlink="http://www.w3.org/1999/xlink"><defs /><rect fill="white" height="531.49605" opacity="1" stroke-width="0" width="1098.42517" x="0.0" y="0.0" /><g><g id="vlines" stroke="lightgray"><line x1="0.0" x2="0.0" y1="70.86614" y2="496.06298000000004" /><rect fill="#76e9ff" height="425.19684" opacity="0.8" stroke="lightgray" stroke-width="0" width="7.086614000000001" x="14.173228000000002" y="70.86614" /><text fill="black" font-family="Verdana" font-size="16" font-weight="bold" stroke="black" stroke-width="0" x="3.543307" y="53.149605">37</text><line x1="35.43307" x2="35.43307" y1="70.86614" y2="496.06298000000004" /><text fill="black" font-family="Verdana" font-size="16" font-weight="bold" stroke="black" stroke-width="0" x="38.976377" y="53.149605">38</text><line x1="70.86614" x2="70.86614" y1="70.86614" y2="496.06298000000004" /><text fill="black" font-family="Verdana" font-size="16" font-weight="bold" stroke="black" stroke-width="0" x="74.409447" y="53.149605">39</text><line x1="106.29921" x2="106.29921" y1="70.86614" y2="496.06298000000004" /><text fill="#800000" font-family="Verdana" font-size="18" font-weight="bold" stroke="#800000" stroke-width="0" x="109.842517" y="35.43307">October</text><text fill="black" font-family="Verdana" font-size="16" font-weight="bold" stroke="black" stroke-width="0" x="109.842517" y="53.149605">40</text><line x1="141.73228" x2="141.73228" y1="70.86614" y2="496.06298000000004" /><text fill="black" font-family="Verdana" font-size="16" font-weight="bold" stroke="black" stroke-width="0" x="145.275587" y="53.149605">41</text><line x1="177.16535" x2="177.16535" y1="70.86614" y2="496.06298000000004" /><text fill="black" font-family="Verdana" font-size="16" font-weight="bold" stroke="black" stroke-width="0" x="180.708657" y="53.149605">42</text><line x1="212.59842" x2="212.59842" y1="70.86614" y2="496.06298000000004" /><text fill="black" font-family="Verdana" font-size="16" font-weight="bold" stroke="black" stroke-width="0" x="216.141727" y="53.149605">43</text><line x1="248.03149000000002" x2="248.03149000000002" y1="70.86614" y2="496.06298000000004" /><text fill="#800000" font-family="Verdana" font-size="18" font-weight="bold" stroke="#800000" stroke-width="0" x="251.574797" y="35.43307">November</text><text fill="black" font-family="Verdana" font-size="16" font-weight="bold" stroke="black" stroke-width="0" x="251.574797" y="53.149605">44</text><line x1="283.46456" x2="283.46456" y1="70.86614" y2="496.06298000000004" /><text fill="black" font-family="Verdana" font-size="16" font-weight="bold" stroke="black" stroke-width="0" x="287.007867" y="53.149605">45</text><line x1="318.89763" x2="318.89763" y1="70.86614" y2="496.06298000000004" /><text fill="black" font-family="Verdana" font-size="16" font-weight="bold" stroke="black" stroke-width="0" x="322.440937" y="53.149605">46</text><line x1="354.3307" x2="354.3307" y1="70.86614" y2="496.06298000000004" /><text fill="black" font-family="Verdana" font-size="16" font-weight="bold" stroke="black" stroke-width="0" x="357.874007" y="53.149605">47</text><line x1="389.76377" x2="389.76377" y1="70.86614" y2="496.06298000000004" /><text fill="black" font-family="Verdana" font-size="16" font-weight="bold" stroke="black" stroke-width="0" x="393.307077" y="53.149605">48</text><line x1="425.19684" x2="425.19684" y1="70.86614" y2="496.06298000000004" /><text fill="#800000" font-family="Verdana" font-size="18" font-weight="bold" stroke="#800000" stroke-width="0" x="428.740147" y="35.43307">December</text><text fill="black" font-family="Verdana" font-size="16" font-weight="bold" stroke="black" stroke-width="0" x="428.740147" y="53.149605">49</text><line x1="460.62991" x2="460.62991" y1="70.86614" y2="496.06298000000004" /><text fill="black" font-family="Verdana" font-size="16" font-weight="bold" stroke="black" stroke-width="0" x="464.173217" y="53.149605">50</text><line x1="496.06298000000004" x2="496.06298000000004" y1="70.86614" y2="496.06298000000004" /><text fill="black" font-family="Verdana" font-size="16" font-weight="bold" stroke="black" stroke-width="0" x="499.606287" y="53.149605">51</text><line x1="531.49605" x2="531.49605" y1="70.86614" y2="496.06298000000004" /><text fill="black" font-family="Verdana" font-size="16" font-weight="bold" stroke="black" stroke-width="0" x="535.039357" y="53.149605">52</text><line x1="566.92912" x2="566.92912" y1="70.86614" y2="496.06298000000004" /><text fill="#400000" font-family="Verdana" font-size="20" font-weight="bold" stroke="#400000" stroke-width="0" x="570.472427" y="17.716535">2022</text><text fill="#800000" font-family="Verdana" font-size="18" font-weight="bold" stroke="#800000" stroke-width="0" x="570.472427" y="35.43307">January</text><text fill="black" font-family="Verdana" font-size="16" font-weight="bold" stroke="black" stroke-width="0" x="570.472427" y="53.149605">01</text><line x1="602.36219" x2="602.36219" y1="70.86614" y2="496.06298000000004" /><text fill="black" font-family="Verdana" font-size="16" font-weight="bold" stroke="black" stroke-width="0" x="605.905497" y="53.149605">02</text><line x1="637.79526" x2="637.79526" y1="70.86614" y2="496.06298000000004" /><text fill="black" font-family="Verdana" font-size="16" font-weight="bold" stroke="black" stroke-width="0" x="641.338567" y="53.149605">03</text><line x1="673.22833" x2="673.22833" y1="70.86614" y2="496.06298000000004" /><text fill="black" font-family="Verdana" font-size="16" font-weight="bold" stroke="black" stroke-width="0" x="676.7716369999999" y="53.149605">04</text><line x1="708.6614" x2="708.6614" y1="70.86614" y2="496.06298000000004" /><text fill="black" font-family="Verdana" font-size="16" font-weight="bold" stroke="black" stroke-width="0" x="712.204707" y="53.149605">05</text><line x1="744.09447" x2="744.09447" y1="70.86614" y2="496.06298000000004" /><text fill="#800000" font-family="Verdana" font-size="18" font-weight="bold" stroke="#800000" stroke-width="0" x="747.637777" y="35.43307">February</text><text fill="black" font-family="Verdana" font-size="16" font-weight="bold" stroke="black" stroke-width="0" x="747.637777" y="53.149605">06</text><line x1="779.52754" x2="779.52754" y1="70.86614" y2="496.06298000000004" /><text fill="black" font-family="Verdana" font-size="16" font-weight="bold" stroke="black" stroke-width="0" x="783.070847" y="53.149605">07</text><line x1="814.96061" x2="814.96061" y1="70.86614" y2="496.06298000000004" /><text fill="black" font-family="Verdana" font-size="16" font-weight="bold" stroke="black" stroke-width="0" x="818.503917" y="53.149605">08</text><line x1="850.39368" x2="850.39368" y1="70.86614" y2="496.06298000000004" /><text fill="black" font-family="Verdana" font-size="16" font-weight="bold" stroke="black" stroke-width="0" x="853.936987" y="53.149605">09</text><line x1="885.8267500000001" x2="885.8267500000001" y1="70.86614" y2="496.06298000000004" /><text fill="#800000" font-family="Verdana" font-size="18" font-weight="bold" stroke="#800000" stroke-width="0" x="889.370057" y="35.43307">March</text><text fill="black" font-family="Verdana" font-size="16" font-weight="bold" stroke="black" stroke-width="0" x="889.370057" y="53.149605">10</text><line x1="921.25982" x2="921.25982" y1="70.86614" y2="496.06298000000004" /><text fill="black" font-family="Verdana" font-size="16" font-weight="bold" stroke="black" stroke-width="0" x="924.803127" y="53.149605">11</text><line x1="956.69289" x2="956.69289" y1="70.86614" y2="496.06298000000004" /><text fill="black" font-family="Verdana" font-size="16" font-weight="bold" stroke="black" stroke-width="0" x="960.236197" y="53.149605">12</text><line x1="992.1259600000001" x2="992.1259600000001" y1="70.86614" y2="496.06298000000004" /><text fill="black" font-family="Verdana" font-size="16" font-weight="bold" stroke="black" stroke-width="0" x="995.669267" y="53.149605">13</text><line x1="1027.5590300000001" x2="1027.5590300000001" y1="70.86614" y2="496.06298000000004" /><text fill="#800000" font-family="Verdana" font-size="18" font-weight="bold" stroke="#800000" stroke-width="0" x="1031.102337" y="35.43307">April</text><text fill="black" font-family="Verdana" font-size="16" font-weight="bold" stroke="black" stroke-width="0" x="1031.102337" y="53.149605">14</text><line x1="1062.9921" x2="1062.9921" y1="70.86614" y2="496.06298000000004" /><text fill="black" font-family="Verdana" font-size="16" font-weight="bold" stroke="black" stroke-width="0" x="1066.535407" y="53.149605">15</text><line x1="1098.42517" x2="1098.42517" y1="70.86614" y2="496.06298000000004" /></g><g id="hlines" stroke="lightgray"><line x1="0.0" x2="1098.42517" y1="70.86614" y2="70.86614" /><line x1="0.0" x2="1098.42517" y1="106.29921" y2="106.29921" /><line x1="0.0" x2="1098.42517" y1="141.73228" y2="141.73228" /><line x1="0.0" x2="1098.42517" y1="177.16535" y2="177.16535" /><line x1="0.0" x2="1098.42517" y1="212.59842" y2="212.59842" /><line x1="0.0" x2="1098.42517" y1="248.03149000000002" y2="248.03149000000002" /><line x1="0.0" x2="1098.42517" y1="283.46456" y2="283.46456" /><line x1="0.0" x2="1098.42517" y1="318.89763" y2="318.89763" /><line x1="0.0" x2="1098.42517" y1="354.3307" y2="354.3307" /><line x1="0.0" x2="1098.42517" y1="389.76377" y2="389.76377" /><line x1="0.0" x2="1098.42517" y1="425.19684" y2="425.19684" /><line x1="0.0" x2="1098.42517" y1="460.62991" y2="460.62991" /><line x1="0.0" x2="1098.42517" y1="496.06298000000004" y2="496.06298000000004" /></g><line stroke="black" x1="0.0" x2="1098.42517" y1="70.86614" y2="70.86614" /><line stroke="black" x1="0.0" x2="1098.42517" y1="496.06298000000004" y2="496.06298000000004" /></g><g><g><text fill="black" font-family="Verdana" font-size="18" stroke="black" stroke-width="0" x="10.629921" y="95.669289">Full Gantt</text><rect fill="purple" height="403.936998" opacity="0.5" stroke="lightgray" stroke-width="0" width="7.086614000000001" x="2.8346456" y="88.582675" /><g><g><text fill="black" font-family="Verdana" font-size="18" stroke="black" stroke-width="0" x="31.889763" y="131.102359">Permissions + Access</text><rect fill="purple" height="49.606297999999995" opacity="0.5" stroke="lightgray" stroke-width="0" width="7.086614000000001" x="24.0944876" y="124.01574500000001" /><g><g id="Total_Time"><rect fill="#a3ddcb" height="28.346456" opacity="0.85" stroke="#a3ddcb" stroke-width="2" width="99.212596" x="3.543307" y="145.275587" /><rect fill="#909090" height="10.629921" opacity="0.2" stroke="#a3ddcb" stroke-width="1" width="99.212596" x="3.543307" y="162.992122" /><rect fill="#F08000" height="10.629921" opacity="0.35" stroke="#a3ddcb" stroke-width="1" width="19.842519199999998" x="3.543307" y="162.992122" /><text fill="black" font-family="Verdana" font-size="15" stroke="black" stroke-width="0" x="7.086614" y="159.448815">Total Time</text><text fill="purple" font-family="Verdana" font-size="10" stroke="black" stroke-width="0" x="7.086614" y="171.8503895">Rohit / Rani</text></g></g></g><g><text fill="black" font-family="Verdana" font-size="18" stroke="black" stroke-width="0" x="31.889763" y="201.968499">Code Design</text><rect fill="purple" height="49.606297999999995" opacity="0.5" stroke="lightgray" stroke-width="0" width="7.086614000000001" x="24.0944876" y="194.881885" /><g><g id="Total_Time"><rect fill="#a3ddcb" height="28.346456" opacity="0.85" stroke="#a3ddcb" stroke-width="2" width="99.212596" x="74.409447" y="216.141727" /><rect fill="#909090" height="10.629921" opacity="0.2" stroke="#a3ddcb" stroke-width="1" width="99.212596" x="74.409447" y="233.858262" /><rect fill="#0000FF" height="14.173228" opacity="0.35" stroke="#a3ddcb" stroke-width="1" width="17.716535" x="74.409447" y="216.141727" /><text fill="black" font-family="Verdana" font-size="15" stroke="black" stroke-width="0" x="77.952754" y="230.314955">Total Time</text><text fill="purple" font-family="Verdana" font-size="10" stroke="black" stroke-width="0" x="77.952754" y="242.7165295">Rohit</text></g></g></g><g><text fill="black" font-family="Verdana" font-size="18" stroke="black" stroke-width="0" x="31.889763" y="272.834639">Code Refactoring</text><rect fill="purple" height="49.606297999999995" opacity="0.5" stroke="lightgray" stroke-width="0" width="7.086614000000001" x="24.0944876" y="265.748025" /><g><g id="Total_Time"><rect fill="#ffe3de" height="28.346456" opacity="0.85" stroke="#ffe3de" stroke-width="2" width="134.645666" x="38.976377" y="287.007867" /><rect fill="#909090" height="10.629921" opacity="0.2" stroke="#ffe3de" stroke-width="1" width="134.645666" x="38.976377" y="304.724402" /><text fill="black" font-family="Verdana" font-size="15" stroke="black" stroke-width="0" x="42.519684" y="301.18109499999997">Total Time</text><text fill="purple" font-family="Verdana" font-size="10" stroke="black" stroke-width="0" x="42.519684" y="313.5826695">Rohit</text></g></g></g><g><text fill="black" font-family="Verdana" font-size="18" stroke="black" stroke-width="0" x="31.889763" y="343.700779">CI New Code</text><rect fill="purple" height="49.606297999999995" opacity="0.5" stroke="lightgray" stroke-width="0" width="7.086614000000001" x="24.0944876" y="336.614165" /><g><g id="Total_Time"><rect fill="#ffe3de" height="28.346456" opacity="0.85" stroke="#ffe3de" stroke-width="2" width="666.141716" x="38.976377" y="357.874007" /><rect fill="#909090" height="10.629921" opacity="0.2" stroke="#ffe3de" stroke-width="1" width="666.141716" x="38.976377" y="375.59054199999997" /><text fill="black" font-family="Verdana" font-size="15" stroke="black" stroke-width="0" x="42.519684" y="372.047235">Total Time</text><text fill="purple" font-family="Verdana" font-size="10" stroke="black" stroke-width="0" x="42.519684" y="384.4488095">Rohit / Pratik / Abhijeet</text></g></g></g><g><text fill="black" font-family="Verdana" font-size="18" stroke="black" stroke-width="0" x="31.889763" y="414.566919">Build model API</text><rect fill="purple" height="49.606297999999995" opacity="0.5" stroke="lightgray" stroke-width="0" width="7.086614000000001" x="24.0944876" y="407.480305" /><g><g id="Total_Time"><rect fill="#FFFF40" height="28.346456" opacity="0.85" stroke="#FFFF40" stroke-width="2" width="134.645666" x="109.842517" y="428.740147" /><rect fill="#909090" height="10.629921" opacity="0.2" stroke="#FFFF40" stroke-width="1" width="134.645666" x="109.842517" y="446.456682" /><text fill="black" font-family="Verdana" font-size="15" stroke="black" stroke-width="0" x="113.385824" y="442.913375">Total Time</text><text fill="purple" font-family="Verdana" font-size="10" stroke="black" stroke-width="0" x="113.385824" y="455.3149495">Rohit</text></g></g></g><g id="Full_Project"><rect fill="#FFFF90" height="28.346456" opacity="0.85" stroke="#FFFF90" stroke-width="2" width="1055.9054859999999" x="3.543307" y="464.173217" /><rect fill="#909090" height="10.629921" opacity="0.2" stroke="#FFFF90" stroke-width="1" width="1055.9054859999999" x="3.543307" y="481.889752" /><text fill="black" font-family="Verdana" font-size="15" stroke="black" stroke-width="0" x="7.086614" y="478.346445">Full Project</text><text fill="purple" font-family="Verdana" font-size="10" stroke="black" stroke-width="0" x="7.086614" y="490.7480195">Rohit / Pratik / Abhijeet / Rani / Girish / Tejas / Ritesh / Shitanshu / Hari</text></g></g></g><g><g /><g><g><line stroke="black" stroke-dasharray="5,3" x1="99.212596" x2="70.86614" y1="159.448815" y2="159.448815" /><marker id="id1" markerHeight="10" markerWidth="10" refX="5" refY="5"><circle cx="5" cy="5" fill="#000000" opacity="0.5" r="5" stroke-width="0" /></marker><line marker-end="url(#id1)" stroke="black" stroke-dasharray="5,3" x1="70.86614" x2="70.86614" y1="159.448815" y2="230.314955" /></g></g><g /><g /><g /></g></g></svg>