<?xml version="1.0" encoding="utf-8" ?>
<svg baseProfile="full" height="1913.38578" version="1.1" width="1098.42517" xmlns="http://www.w3.org/2000/svg" xmlns:ev="http://www.w3.org/2001/xml-events" xmlns:xlink="http://www.w3.org/1999/xlink"><defs /><rect fill="white" height="1913.38578" opacity="1" stroke-width="0" width="1098.42517" x="0.0" y="0.0" /><g><g id="vlines" stroke="lightgray"><line x1="0.0" x2="0.0" y1="70.86614" y2="1877.95271" /><text fill="black" font-family="Verdana" font-size="12" stroke="black" stroke-width="0" x="3.543307" y="67.322833">M 13</text><text fill="black" font-family="Verdana" font-size="16" font-weight="bold" stroke="black" stroke-width="0" x="3.543307" y="53.149605">37</text><line x1="35.43307" x2="35.43307" y1="70.86614" y2="1877.95271" /><text fill="black" font-family="Verdana" font-size="12" stroke="black" stroke-width="0" x="38.976377" y="67.322833">T 14</text><line x1="70.86614" x2="70.86614" y1="70.86614" y2="1877.95271" /><text fill="black" font-family="Verdana" font-size="12" stroke="black" stroke-width="0" x="74.409447" y="67.322833">W 15</text><line x1="106.29921" x2="106.29921" y1="70.86614" y2="1877.95271" /><text fill="black" font-family="Verdana" font-size="12" stroke="black" stroke-width="0" x="109.842517" y="67.322833">T 16</text><line x1="141.73228" x2="141.73228" y1="70.86614" y2="1877.95271" /><text fill="black" font-family="Verdana" font-size="12" stroke="black" stroke-width="0" x="145.275587" y="67.322833">F 17</text><line x1="177.16535" x2="177.16535" y1="70.86614" y2="1877.95271" /><rect fill="gray" height="1807.08657" opacity="0.7" stroke="lightgray" stroke-width="1" width="35.43307" x="177.16535" y="70.86614" /><text fill="black" font-family="Verdana" font-size="12" stroke="black" stroke-width="0" x="180.708657" y="67.322833">S 18</text><line x1="212.59842" x2="212.59842" y1="70.86614" y2="1877.95271" /><rect fill="#76e9ff" height="1807.08657" opacity="0.8" stroke="lightgray" stroke-width="0" width="7.086614000000001" x="226.77164800000003" y="70.86614" /><rect fill="gray" height="1807.08657" opacity="0.7" stroke="lightgray" stroke-width="1" width="35.43307" x="212.59842" y="70.86614" /><text fill="black" font-family="Verdana" font-size="12" stroke="black" stroke-width="0" x="216.141727" y="67.322833">S 19</text><line x1="248.03149000000002" x2="248.03149000000002" y1="70.86614" y2="1877.95271" /><text fill="black" font-family="Verdana" font-size="12" stroke="black" stroke-width="0" x="251.574797" y="67.322833">M 20</text><text fill="black" font-family="Verdana" font-size="16" font-weight="bold" stroke="black" stroke-width="0" x="251.574797" y="53.149605">38</text><line x1="283.46456" x2="283.46456" y1="70.86614" y2="1877.95271" /><text fill="black" font-family="Verdana" font-size="12" stroke="black" stroke-width="0" x="287.007867" y="67.322833">T 21</text><line x1="318.89763" x2="318.89763" y1="70.86614" y2="1877.95271" /><text fill="black" font-family="Verdana" font-size="12" stroke="black" stroke-width="0" x="322.440937" y="67.322833">W 22</text><line x1="354.3307" x2="354.3307" y1="70.86614" y2="1877.95271" /><text fill="black" font-family="Verdana" font-size="12" stroke="black" stroke-width="0" x="357.874007" y="67.322833">T 23</text><line x1="389.76377" x2="389.76377" y1="70.86614" y2="1877.95271" /><text fill="black" font-family="Verdana" font-size="12" stroke="black" stroke-width="0" x="393.307077" y="67.322833">F 24</text><line x1="425.19684" x2="425.19684" y1="70.86614" y2="1877.95271" /><rect fill="gray" height="1807.08657" opacity="0.7" stroke="lightgray" stroke-width="1" width="35.43307" x="425.19684" y="70.86614" /><text fill="black" font-family="Verdana" font-size="12" stroke="black" stroke-width="0" x="428.740147" y="67.322833">S 25</text><line x1="460.62991" x2="460.62991" y1="70.86614" y2="1877.95271" /><rect fill="gray" height="1807.08657" opacity="0.7" stroke="lightgray" stroke-width="1" width="35.43307" x="460.62991" y="70.86614" /><text fill="black" font-family="Verdana" font-size="12" stroke="black" stroke-width="0" x="464.173217" y="67.322833">S 26</text><line x1="496.06298000000004" x2="496.06298000000004" y1="70.86614" y2="1877.95271" /><text fill="black" font-family="Verdana" font-size="12" stroke="black" stroke-width="0" x="499.606287" y="67.322833">M 27</text><text fill="black" font-family="Verdana" font-size="16" font-weight="bold" stroke="black" stroke-width="0" x="499.606287" y="53.149605">39</text><line x1="531.49605" x2="531.49605" y1="70.86614" y2="1877.95271" /><text fill="black" font-family="Verdana" font-size="12" stroke="black" stroke-width="0" x="535.039357" y="67.322833">T 28</text><line x1="566.92912" x2="566.92912" y1="70.86614" y2="1877.95271" /><text fill="black" font-family="Verdana" font-size="12" stroke="black" stroke-width="0" x="570.472427" y="67.322833">W 29</text><line x1="602.36219" x2="602.36219" y1="70.86614" y2="1877.95271" /><text fill="black" font-family="Verdana" font-size="12" stroke="black" stroke-width="0" x="605.905497" y="67.322833">T 30</text><line x1="637.79526" x2="637.79526" y1="70.86614" y2="1877.95271" /><text fill="black" font-family="Verdana" font-size="12" stroke="black" stroke-width="0" x="641.338567" y="67.322833">F 01</text><text fill="#800000" font-family="Verdana" font-size="18" font-weight="bold" stroke="#800000" stroke-width="0" x="641.338567" y="35.43307">October</text><line x1="673.22833" x2="673.22833" y1="70.86614" y2="1877.95271" /><rect fill="gray" height="1807.08657" opacity="0.7" stroke="lightgray" stroke-width="1" width="35.43307" x="673.22833" y="70.86614" /><text fill="black" font-family="Verdana" font-size="12" stroke="black" stroke-width="0" x="676.7716369999999" y="67.322833">S 02</text><line x1="708.6614" x2="708.6614" y1="70.86614" y2="1877.95271" /><rect fill="gray" height="1807.08657" opacity="0.7" stroke="lightgray" stroke-width="1" width="35.43307" x="708.6614" y="70.86614" /><text fill="black" font-family="Verdana" font-size="12" stroke="black" stroke-width="0" x="712.204707" y="67.322833">S 03</text><line x1="744.09447" x2="744.09447" y1="70.86614" y2="1877.95271" /><text fill="black" font-family="Verdana" font-size="12" stroke="black" stroke-width="0" x="747.637777" y="67.322833">M 04</text><text fill="black" font-family="Verdana" font-size="16" font-weight="bold" stroke="black" stroke-width="0" x="747.637777" y="53.149605">40</text><line x1="779.52754" x2="779.52754" y1="70.86614" y2="1877.95271" /><text fill="black" font-family="Verdana" font-size="12" stroke="black" stroke-width="0" x="783.070847" y="67.322833">T 05</text><line x1="814.96061" x2="814.96061" y1="70.86614" y2="1877.95271" /><text fill="black" font-family="Verdana" font-size="12" stroke="black" stroke-width="0" x="818.503917" y="67.322833">W 06</text><line x1="850.39368" x2="850.39368" y1="70.86614" y2="1877.95271" /><text fill="black" font-family="Verdana" font-size="12" stroke="black" stroke-width="0" x="853.936987" y="67.322833">T 07</text><line x1="885.8267500000001" x2="885.8267500000001" y1="70.86614" y2="1877.95271" /><text fill="black" font-family="Verdana" font-size="12" stroke="black" stroke-width="0" x="889.370057" y="67.322833">F 08</text><line x1="921.25982" x2="921.25982" y1="70.86614" y2="1877.95271" /><rect fill="gray" height="1807.08657" opacity="0.7" stroke="lightgray" stroke-width="1" width="35.43307" x="921.25982" y="70.86614" /><text fill="black" font-family="Verdana" font-size="12" stroke="black" stroke-width="0" x="924.803127" y="67.322833">S 09</text><line x1="956.69289" x2="956.69289" y1="70.86614" y2="1877.95271" /><rect fill="gray" height="1807.08657" opacity="0.7" stroke="lightgray" stroke-width="1" width="35.43307" x="956.69289" y="70.86614" /><text fill="black" font-family="Verdana" font-size="12" stroke="black" stroke-width="0" x="960.236197" y="67.322833">S 10</text><line x1="992.1259600000001" x2="992.1259600000001" y1="70.86614" y2="1877.95271" /><text fill="black" font-family="Verdana" font-size="12" stroke="black" stroke-width="0" x="995.669267" y="67.322833">M 11</text><text fill="black" font-family="Verdana" font-size="16" font-weight="bold" stroke="black" stroke-width="0" x="995.669267" y="53.149605">41</text><line x1="1027.5590300000001" x2="1027.5590300000001" y1="70.86614" y2="1877.95271" /><text fill="black" font-family="Verdana" font-size="12" stroke="black" stroke-width="0" x="1031.102337" y="67.322833">T 12</text><line x1="1062.9921" x2="1062.9921" y1="70.86614" y2="1877.95271" /><text fill="black" font-family="Verdana" font-size="12" stroke="black" stroke-width="0" x="1066.535407" y="67.322833">W 13</text><line x1="1098.42517" x2="1098.42517" y1="70.86614" y2="1877.95271" /></g><g id="hlines" stroke="lightgray"><line x1="0.0" x2="1098.42517" y1="70.86614" y2="70.86614" /><line x1="0.0" x2="1098.42517" y1="106.29921" y2="106.29921" /><line x1="0.0" x2="1098.42517" y1="141.73228" y2="141.73228" /><line x1="0.0" x2="1098.42517" y1="177.16535" y2="177.16535" /><line x1="0.0" x2="1098.42517" y1="212.59842" y2="212.59842" /><line x1="0.0" x2="1098.42517" y1="248.03149000000002" y2="248.03149000000002" /><line x1="0.0" x2="1098.42517" y1="283.46456" y2="283.46456" /><line x1="0.0" x2="1098.42517" y1="318.89763" y2="318.89763" /><line x1="0.0" x2="1098.42517" y1="354.3307" y2="354.3307" /><line x1="0.0" x2="1098.42517" y1="389.76377" y2="389.76377" /><line x1="0.0" x2="1098.42517" y1="425.19684" y2="425.19684" /><line x1="0.0" x2="1098.42517" y1="460.62991" y2="460.62991" /><line x1="0.0" x2="1098.42517" y1="496.06298000000004" y2="496.06298000000004" /><line x1="0.0" x2="1098.42517" y1="531.49605" y2="531.49605" /><line x1="0.0" x2="1098.42517" y1="566.92912" y2="566.92912" /><line x1="0.0" x2="1098.42517" y1="602.36219" y2="602.36219" /><line x1="0.0" x2="1098.42517" y1="637.79526" y2="637.79526" /><line x1="0.0" x2="1098.42517" y1="673.22833" y2="673.22833" /><line x1="0.0" x2="1098.42517" y1="708.6614" y2="708.6614" /><line x1="0.0" x2="1098.42517" y1="744.09447" y2="744.09447" /><line x1="0.0" x2="1098.42517" y1="779.52754" y2="779.52754" /><line x1="0.0" x2="1098.42517" y1="814.96061" y2="814.96061" /><line x1="0.0" x2="1098.42517" y1="850.39368" y2="850.39368" /><line x1="0.0" x2="1098.42517" y1="885.8267500000001" y2="885.8267500000001" /><line x1="0.0" x2="1098.42517" y1="921.25982" y2="921.25982" /><line x1="0.0" x2="1098.42517" y1="956.69289" y2="956.69289" /><line x1="0.0" x2="1098.42517" y1="992.1259600000001" y2="992.1259600000001" /><line x1="0.0" x2="1098.42517" y1="1027.5590300000001" y2="1027.5590300000001" /><line x1="0.0" x2="1098.42517" y1="1062.9921" y2="1062.9921" /><line x1="0.0" x2="1098.42517" y1="1098.42517" y2="1098.42517" /><line x1="0.0" x2="1098.42517" y1="1133.85824" y2="1133.85824" /><line x1="0.0" x2="1098.42517" y1="1169.29131" y2="1169.29131" /><line x1="0.0" x2="1098.42517" y1="1204.72438" y2="1204.72438" /><line x1="0.0" x2="1098.42517" y1="1240.15745" y2="1240.15745" /><line x1="0.0" x2="1098.42517" y1="1275.59052" y2="1275.59052" /><line x1="0.0" x2="1098.42517" y1="1311.02359" y2="1311.02359" /><line x1="0.0" x2="1098.42517" y1="1346.45666" y2="1346.45666" /><line x1="0.0" x2="1098.42517" y1="1381.88973" y2="1381.88973" /><line x1="0.0" x2="1098.42517" y1="1417.3228" y2="1417.3228" /><line x1="0.0" x2="1098.42517" y1="1452.75587" y2="1452.75587" /><line x1="0.0" x2="1098.42517" y1="1488.18894" y2="1488.18894" /><line x1="0.0" x2="1098.42517" y1="1523.62201" y2="1523.62201" /><line x1="0.0" x2="1098.42517" y1="1559.05508" y2="1559.05508" /><line x1="0.0" x2="1098.42517" y1="1594.4881500000001" y2="1594.4881500000001" /><line x1="0.0" x2="1098.42517" y1="1629.92122" y2="1629.92122" /><line x1="0.0" x2="1098.42517" y1="1665.35429" y2="1665.35429" /><line x1="0.0" x2="1098.42517" y1="1700.78736" y2="1700.78736" /><line x1="0.0" x2="1098.42517" y1="1736.22043" y2="1736.22043" /><line x1="0.0" x2="1098.42517" y1="1771.6535000000001" y2="1771.6535000000001" /><line x1="0.0" x2="1098.42517" y1="1807.08657" y2="1807.08657" /><line x1="0.0" x2="1098.42517" y1="1842.51964" y2="1842.51964" /><line x1="0.0" x2="1098.42517" y1="1877.95271" y2="1877.95271" /></g><line stroke="black" x1="0.0" x2="1098.42517" y1="70.86614" y2="70.86614" /><line stroke="black" x1="0.0" x2="1098.42517" y1="1877.95271" y2="1877.95271" /></g><g><line stroke="black" x1="0.0" x2="1098.42517" y1="70.86614" y2="70.86614" /><g id="Jenkins"><rect fill="#FFFF00" height="28.346456" opacity="0.85" stroke="#FFFF00" stroke-width="2" width="99.212596" x="3.543307" y="109.842517" /><rect fill="#909090" height="10.629921" opacity="0.2" stroke="#FFFF00" stroke-width="1" width="99.212596" x="3.543307" y="127.559052" /><text fill="black" font-family="Verdana" font-size="15" stroke="black" stroke-width="0" x="7.086614" y="124.015745">Jenkins</text><text fill="purple" font-family="Verdana" font-size="10" stroke="black" stroke-width="0" x="7.086614" y="136.4173195">Rani / IT / Rohit</text></g><g id="Docker"><rect fill="#FFFF00" height="28.346456" opacity="0.85" stroke="#FFFF00" stroke-width="2" width="311.811016" x="3.543307" y="145.275587" /><rect fill="#909090" height="10.629921" opacity="0.2" stroke="#FFFF00" stroke-width="1" width="311.811016" x="3.543307" y="162.992122" /><text fill="black" font-family="Verdana" font-size="15" stroke="black" stroke-width="0" x="7.086614" y="159.448815">Docker</text><text fill="purple" font-family="Verdana" font-size="10" stroke="black" stroke-width="0" x="7.086614" y="171.8503895">Rani</text></g><g id="Super_User_Creation"><rect fill="#FFFF00" height="28.346456" opacity="0.85" stroke="#FFFF00" stroke-width="2" width="99.212596" x="3.543307" y="180.708657" /><rect fill="#909090" height="10.629921" opacity="0.2" stroke="#FFFF00" stroke-width="1" width="99.212596" x="3.543307" y="198.425192" /><text fill="black" font-family="Verdana" font-size="15" stroke="black" stroke-width="0" x="7.086614" y="194.881885">Super_User_Creation</text><text fill="purple" font-family="Verdana" font-size="10" stroke="black" stroke-width="0" x="7.086614" y="207.2834595">Rani / IT / Rohit</text></g><g id="Firewall_access_for_package_installations"><rect fill="#FFFF00" height="28.346456" opacity="0.85" stroke="#FFFF00" stroke-width="2" width="99.212596" x="251.574797" y="216.141727" /><rect fill="#909090" height="10.629921" opacity="0.2" stroke="#FFFF00" stroke-width="1" width="99.212596" x="251.574797" y="233.858262" /><text fill="black" font-family="Verdana" font-size="15" stroke="black" stroke-width="0" x="255.118104" y="230.314955">Firewall_access_for_package_installations</text><text fill="purple" font-family="Verdana" font-size="10" stroke="black" stroke-width="0" x="255.118104" y="242.7165295">Rani / IT / Rohit / Pratik / Abhijeet</text></g><g id="test_task_order_2"><rect fill="#FFFF00" height="28.346456" opacity="0.85" stroke="#FFFF00" stroke-width="2" width="170.078736" x="251.574797" y="251.574797" /><rect fill="#909090" height="10.629921" opacity="0.2" stroke="#FFFF00" stroke-width="1" width="170.078736" x="251.574797" y="269.291332" /><text fill="black" font-family="Verdana" font-size="15" stroke="black" stroke-width="0" x="255.118104" y="265.748025">test_task_order_2</text><text fill="purple" font-family="Verdana" font-size="10" stroke="black" stroke-width="0" x="255.118104" y="278.1495995">Rani / IT / Rohit</text></g><g id="test_task_order_2_second"><rect fill="#FFFF00" height="28.346456" opacity="0.85" stroke="#FFFF00" stroke-width="2" width="63.779526" x="251.574797" y="287.007867" /><rect fill="#909090" height="10.629921" opacity="0.2" stroke="#FFFF00" stroke-width="1" width="63.779526" x="251.574797" y="304.724402" /><text fill="black" font-family="Verdana" font-size="15" stroke="black" stroke-width="0" x="255.118104" y="301.18109499999997">test_task_order_2_second</text><text fill="purple" font-family="Verdana" font-size="10" stroke="black" stroke-width="0" x="255.118104" y="313.5826695">Rani / IT / Rohit</text></g><g id="test_task_order_2_third"><rect fill="#FFFF00" height="28.346456" opacity="0.85" stroke="#FFFF00" stroke-width="2" width="63.779526" x="251.574797" y="322.440937" /><rect fill="#909090" height="10.629921" opacity="0.2" stroke="#FFFF00" stroke-width="1" width="63.779526" x="251.574797" y="340.157472" /><text fill="black" font-family="Verdana" font-size="15" stroke="black" stroke-width="0" x="255.118104" y="336.614165">test_task_order_2_third</text><text fill="purple" font-family="Verdana" font-size="10" stroke="black" stroke-width="0" x="255.118104" y="349.0157395">Rani / IT / Rohit</text></g><g id="test_task_order_3"><rect fill="#FFFF00" height="28.346456" opacity="0.85" stroke="#FFFF00" stroke-width="2" width="99.212596" x="499.606287" y="357.874007" /><rect fill="#909090" height="10.629921" opacity="0.2" stroke="#FFFF00" stroke-width="1" width="99.212596" x="499.606287" y="375.59054199999997" /><rect fill="#0000FF" height="14.173228" opacity="0.35" stroke="#FFFF00" stroke-width="1" width="17.716535" x="499.606287" y="357.874007" /><text fill="black" font-family="Verdana" font-size="15" stroke="black" stroke-width="0" x="503.149594" y="372.047235">test_task_order_3</text><text fill="purple" font-family="Verdana" font-size="10" stroke="black" stroke-width="0" x="503.149594" y="384.4488095">Rani / IT / Rohit</text></g><g id="test_task_order_3_second"><rect fill="#FFFF00" height="28.346456" opacity="0.85" stroke="#FFFF00" stroke-width="2" width="170.078736" x="499.606287" y="393.307077" /><rect fill="#909090" height="10.629921" opacity="0.2" stroke="#FFFF00" stroke-width="1" width="170.078736" x="499.606287" y="411.023612" /><rect fill="#0000FF" height="14.173228" opacity="0.35" stroke="#FFFF00" stroke-width="1" width="17.716535" x="499.606287" y="393.307077" /><text fill="black" font-family="Verdana" font-size="15" stroke="black" stroke-width="0" x="503.149594" y="407.480305">test_task_order_3_second</text><text fill="purple" font-family="Verdana" font-size="10" stroke="black" stroke-width="0" x="503.149594" y="419.8818795">Rani / IT / Rohit</text></g><g id="test_task_order_4"><rect fill="#FFFF00" height="28.346456" opacity="0.85" stroke="#FFFF00" stroke-width="2" width="170.078736" x="605.905497" y="428.740147" /><rect fill="#909090" height="10.629921" opacity="0.2" stroke="#FFFF00" stroke-width="1" width="170.078736" x="605.905497" y="446.456682" /><text fill="black" font-family="Verdana" font-size="15" stroke="black" stroke-width="0" x="609.448804" y="442.913375">test_task_order_4</text><text fill="purple" font-family="Verdana" font-size="10" stroke="black" stroke-width="0" x="609.448804" y="455.3149495">Rani / IT / Rohit</text></g><g id="test_task_order_4_second"><rect fill="#FFFF00" height="28.346456" opacity="0.85" stroke="#FFFF00" stroke-width="2" width="170.078736" x="605.905497" y="464.173217" /><rect fill="#909090" height="10.629921" opacity="0.2" stroke="#FFFF00" stroke-width="1" width="170.078736" x="605.905497" y="481.889752" /><text fill="black" font-family="Verdana" font-size="15" stroke="black" stroke-width="0" x="609.448804" y="478.346445">test_task_order_4_second</text><text fill="purple" font-family="Verdana" font-size="10" stroke="black" stroke-width="0" x="609.448804" y="490.7480195">Rani / IT / Rohit</text></g><g id="test_task_order_1"><rect fill="#00FF00" height="28.346456" opacity="0.85" stroke="#00FF00" stroke-width="2" width="99.212596" x="747.637777" y="499.606287" /><rect fill="#909090" height="10.629921" opacity="0.2" stroke="#00FF00" stroke-width="1" width="99.212596" x="747.637777" y="517.322822" /><rect fill="#0000FF" height="14.173228" opacity="0.35" stroke="#00FF00" stroke-width="1" width="17.716535" x="747.637777" y="499.606287" /><text fill="black" font-family="Verdana" font-size="15" stroke="black" stroke-width="0" x="751.1810839999999" y="513.779515">test_task_order_1</text><text fill="purple" font-family="Verdana" font-size="10" stroke="black" stroke-width="0" x="751.1810839999999" y="526.1810895">Rani / IT / Rohit</text></g><g id="Jenkins"><rect fill="#00FF00" height="28.346456" opacity="0.85" stroke="#00FF00" stroke-width="2" width="99.212596" x="747.637777" y="535.039357" /><rect fill="#909090" height="10.629921" opacity="0.2" stroke="#00FF00" stroke-width="1" width="99.212596" x="747.637777" y="552.755892" /><rect fill="#0000FF" height="14.173228" opacity="0.35" stroke="#00FF00" stroke-width="1" width="17.716535" x="747.637777" y="535.039357" /><text fill="black" font-family="Verdana" font-size="15" stroke="black" stroke-width="0" x="751.1810839999999" y="549.212585">Jenkins</text><text fill="purple" font-family="Verdana" font-size="10" stroke="black" stroke-width="0" x="751.1810839999999" y="561.6141595">Rani / IT / Rohit / Ritesh</text></g><g id="Docker"><rect fill="#00FF00" height="28.346456" opacity="0.85" stroke="#00FF00" stroke-width="2" width="311.811016" x="747.637777" y="570.472427" /><rect fill="#909090" height="10.629921" opacity="0.2" stroke="#00FF00" stroke-width="1" width="311.811016" x="747.637777" y="588.188962" /><rect fill="#0000FF" height="14.173228" opacity="0.35" stroke="#00FF00" stroke-width="1" width="17.716535" x="747.637777" y="570.472427" /><text fill="black" font-family="Verdana" font-size="15" stroke="black" stroke-width="0" x="751.1810839999999" y="584.645655">Docker</text><text fill="purple" font-family="Verdana" font-size="10" stroke="black" stroke-width="0" x="751.1810839999999" y="597.0472295">Rani</text></g><g id="Super_User_Creation"><rect fill="#00FF00" height="28.346456" opacity="0.85" stroke="#00FF00" stroke-width="2" width="99.212596" x="747.637777" y="605.905497" /><rect fill="#909090" height="10.629921" opacity="0.2" stroke="#00FF00" stroke-width="1" width="99.212596" x="747.637777" y="623.622032" /><rect fill="#0000FF" height="14.173228" opacity="0.35" stroke="#00FF00" stroke-width="1" width="17.716535" x="747.637777" y="605.905497" /><text fill="black" font-family="Verdana" font-size="15" stroke="black" stroke-width="0" x="751.1810839999999" y="620.078725">Super_User_Creation</text><text fill="purple" font-family="Verdana" font-size="10" stroke="black" stroke-width="0" x="751.1810839999999" y="632.4802995">Rani / IT / Rohit</text></g><g id="test_task_order_2"><rect fill="#00FF00" height="28.346456" opacity="0.85" stroke="#00FF00" stroke-width="2" width="99.212596" x="995.669267" y="641.338567" /><rect fill="#909090" height="10.629921" opacity="0.2" stroke="#00FF00" stroke-width="1" width="99.212596" x="995.669267" y="659.055102" /><rect fill="#0000FF" height="14.173228" opacity="0.35" stroke="#00FF00" stroke-width="1" width="17.716535" x="995.669267" y="641.338567" /><text fill="black" font-family="Verdana" font-size="15" stroke="black" stroke-width="0" x="999.212574" y="655.511795">test_task_order_2</text><text fill="purple" font-family="Verdana" font-size="10" stroke="black" stroke-width="0" x="999.212574" y="667.9133695">Rani</text></g><g><text fill="black" font-family="Verdana" font-size="18" stroke="black" stroke-width="0" x="10.629921" y="95.669289">Rani</text></g><g /><g><rect fill="#AA0000" height="28.346456" opacity="0.65" stroke="#AA0000" stroke-width="1" width="14.173228" x="17.716535" y="74.409447" /><rect fill="#AA0000" height="28.346456" opacity="0.65" stroke="#AA0000" stroke-width="1" width="14.173228" x="53.149605" y="74.409447" /><rect fill="#AA0000" height="28.346456" opacity="0.65" stroke="#AA0000" stroke-width="1" width="14.173228" x="88.582675" y="74.409447" /><rect fill="#AA0000" height="28.346456" opacity="0.65" stroke="#AA0000" stroke-width="1" width="14.173228" x="265.748025" y="74.409447" /><rect fill="#AA0000" height="28.346456" opacity="0.65" stroke="#AA0000" stroke-width="1" width="14.173228" x="301.18109499999997" y="74.409447" /><rect fill="#AA0000" height="28.346456" opacity="0.65" stroke="#AA0000" stroke-width="1" width="14.173228" x="336.614165" y="74.409447" /><rect fill="#AA0000" height="28.346456" opacity="0.65" stroke="#AA0000" stroke-width="1" width="14.173228" x="513.779515" y="74.409447" /><rect fill="#AA0000" height="28.346456" opacity="0.65" stroke="#AA0000" stroke-width="1" width="14.173228" x="549.212585" y="74.409447" /><rect fill="#AA0000" height="28.346456" opacity="0.65" stroke="#AA0000" stroke-width="1" width="14.173228" x="584.645655" y="74.409447" /><rect fill="#AA0000" height="28.346456" opacity="0.65" stroke="#AA0000" stroke-width="1" width="14.173228" x="620.078725" y="74.409447" /><rect fill="#AA0000" height="28.346456" opacity="0.65" stroke="#AA0000" stroke-width="1" width="14.173228" x="655.511795" y="74.409447" /><rect fill="#AA0000" height="28.346456" opacity="0.65" stroke="#AA0000" stroke-width="1" width="14.173228" x="761.811005" y="74.409447" /><rect fill="#AA0000" height="28.346456" opacity="0.65" stroke="#AA0000" stroke-width="1" width="14.173228" x="797.244075" y="74.409447" /><rect fill="#AA0000" height="28.346456" opacity="0.65" stroke="#AA0000" stroke-width="1" width="14.173228" x="832.677145" y="74.409447" /><rect fill="#AA0000" height="28.346456" opacity="0.65" stroke="#AA0000" stroke-width="1" width="14.173228" x="1009.842495" y="74.409447" /><rect fill="#AA0000" height="28.346456" opacity="0.65" stroke="#AA0000" stroke-width="1" width="14.173228" x="1045.275565" y="74.409447" /></g><line stroke="black" x1="0.0" x2="1098.42517" y1="673.22833" y2="673.22833" /><g id="Jenkins"><rect fill="#FFFF00" height="28.346456" opacity="0.85" stroke="#FFFF00" stroke-width="2" width="99.212596" x="3.543307" y="712.204707" /><rect fill="#909090" height="10.629921" opacity="0.2" stroke="#FFFF00" stroke-width="1" width="99.212596" x="3.543307" y="729.921242" /><text fill="black" font-family="Verdana" font-size="15" stroke="black" stroke-width="0" x="7.086614" y="726.377935">Jenkins</text><text fill="purple" font-family="Verdana" font-size="10" stroke="black" stroke-width="0" x="7.086614" y="738.7795095">Rani / IT / Rohit</text></g><g id="Super_User_Creation"><rect fill="#FFFF00" height="28.346456" opacity="0.85" stroke="#FFFF00" stroke-width="2" width="99.212596" x="3.543307" y="747.637777" /><rect fill="#909090" height="10.629921" opacity="0.2" stroke="#FFFF00" stroke-width="1" width="99.212596" x="3.543307" y="765.354312" /><text fill="black" font-family="Verdana" font-size="15" stroke="black" stroke-width="0" x="7.086614" y="761.811005">Super_User_Creation</text><text fill="purple" font-family="Verdana" font-size="10" stroke="black" stroke-width="0" x="7.086614" y="774.2125795">Rani / IT / Rohit</text></g><g id="Firewall_access_for_package_installations"><rect fill="#FFFF00" height="28.346456" opacity="0.85" stroke="#FFFF00" stroke-width="2" width="99.212596" x="251.574797" y="783.070847" /><rect fill="#909090" height="10.629921" opacity="0.2" stroke="#FFFF00" stroke-width="1" width="99.212596" x="251.574797" y="800.787382" /><text fill="black" font-family="Verdana" font-size="15" stroke="black" stroke-width="0" x="255.118104" y="797.244075">Firewall_access_for_package_installations</text><text fill="purple" font-family="Verdana" font-size="10" stroke="black" stroke-width="0" x="255.118104" y="809.6456495">Rani / IT / Rohit / Pratik / Abhijeet</text></g><g id="test_task_order_2"><rect fill="#FFFF00" height="28.346456" opacity="0.85" stroke="#FFFF00" stroke-width="2" width="170.078736" x="251.574797" y="818.503917" /><rect fill="#909090" height="10.629921" opacity="0.2" stroke="#FFFF00" stroke-width="1" width="170.078736" x="251.574797" y="836.220452" /><text fill="black" font-family="Verdana" font-size="15" stroke="black" stroke-width="0" x="255.118104" y="832.677145">test_task_order_2</text><text fill="purple" font-family="Verdana" font-size="10" stroke="black" stroke-width="0" x="255.118104" y="845.0787195">Rani / IT / Rohit</text></g><g id="test_task_order_2_second"><rect fill="#FFFF00" height="28.346456" opacity="0.85" stroke="#FFFF00" stroke-width="2" width="63.779526" x="251.574797" y="853.936987" /><rect fill="#909090" height="10.629921" opacity="0.2" stroke="#FFFF00" stroke-width="1" width="63.779526" x="251.574797" y="871.653522" /><text fill="black" font-family="Verdana" font-size="15" stroke="black" stroke-width="0" x="255.118104" y="868.110215">test_task_order_2_second</text><text fill="purple" font-family="Verdana" font-size="10" stroke="black" stroke-width="0" x="255.118104" y="880.5117895">Rani / IT / Rohit</text></g><g id="test_task_order_2_third"><rect fill="#FFFF00" height="28.346456" opacity="0.85" stroke="#FFFF00" stroke-width="2" width="63.779526" x="251.574797" y="889.370057" /><rect fill="#909090" height="10.629921" opacity="0.2" stroke="#FFFF00" stroke-width="1" width="63.779526" x="251.574797" y="907.086592" /><text fill="black" font-family="Verdana" font-size="15" stroke="black" stroke-width="0" x="255.118104" y="903.543285">test_task_order_2_third</text><text fill="purple" font-family="Verdana" font-size="10" stroke="black" stroke-width="0" x="255.118104" y="915.9448595">Rani / IT / Rohit</text></g><g id="test_task_order_3"><rect fill="#FFFF00" height="28.346456" opacity="0.85" stroke="#FFFF00" stroke-width="2" width="99.212596" x="499.606287" y="924.803127" /><rect fill="#909090" height="10.629921" opacity="0.2" stroke="#FFFF00" stroke-width="1" width="99.212596" x="499.606287" y="942.519662" /><rect fill="#0000FF" height="14.173228" opacity="0.35" stroke="#FFFF00" stroke-width="1" width="17.716535" x="499.606287" y="924.803127" /><text fill="black" font-family="Verdana" font-size="15" stroke="black" stroke-width="0" x="503.149594" y="938.976355">test_task_order_3</text><text fill="purple" font-family="Verdana" font-size="10" stroke="black" stroke-width="0" x="503.149594" y="951.3779295">Rani / IT / Rohit</text></g><g id="test_task_order_3_second"><rect fill="#FFFF00" height="28.346456" opacity="0.85" stroke="#FFFF00" stroke-width="2" width="170.078736" x="499.606287" y="960.236197" /><rect fill="#909090" height="10.629921" opacity="0.2" stroke="#FFFF00" stroke-width="1" width="170.078736" x="499.606287" y="977.952732" /><rect fill="#0000FF" height="14.173228" opacity="0.35" stroke="#FFFF00" stroke-width="1" width="17.716535" x="499.606287" y="960.236197" /><text fill="black" font-family="Verdana" font-size="15" stroke="black" stroke-width="0" x="503.149594" y="974.4094249999999">test_task_order_3_second</text><text fill="purple" font-family="Verdana" font-size="10" stroke="black" stroke-width="0" x="503.149594" y="986.8109995">Rani / IT / Rohit</text></g><g id="test_task_order_4"><rect fill="#FFFF00" height="28.346456" opacity="0.85" stroke="#FFFF00" stroke-width="2" width="170.078736" x="605.905497" y="995.669267" /><rect fill="#909090" height="10.629921" opacity="0.2" stroke="#FFFF00" stroke-width="1" width="170.078736" x="605.905497" y="1013.385802" /><text fill="black" font-family="Verdana" font-size="15" stroke="black" stroke-width="0" x="609.448804" y="1009.842495">test_task_order_4</text><text fill="purple" font-family="Verdana" font-size="10" stroke="black" stroke-width="0" x="609.448804" y="1022.2440695">Rani / IT / Rohit</text></g><g id="test_task_order_4_second"><rect fill="#FFFF00" height="28.346456" opacity="0.85" stroke="#FFFF00" stroke-width="2" width="170.078736" x="605.905497" y="1031.102337" /><rect fill="#909090" height="10.629921" opacity="0.2" stroke="#FFFF00" stroke-width="1" width="170.078736" x="605.905497" y="1048.818872" /><text fill="black" font-family="Verdana" font-size="15" stroke="black" stroke-width="0" x="609.448804" y="1045.275565">test_task_order_4_second</text><text fill="purple" font-family="Verdana" font-size="10" stroke="black" stroke-width="0" x="609.448804" y="1057.6771395">Rani / IT / Rohit</text></g><g id="test_task_order_1"><rect fill="#00FF00" height="28.346456" opacity="0.85" stroke="#00FF00" stroke-width="2" width="99.212596" x="747.637777" y="1066.535407" /><rect fill="#909090" height="10.629921" opacity="0.2" stroke="#00FF00" stroke-width="1" width="99.212596" x="747.637777" y="1084.251942" /><rect fill="#0000FF" height="14.173228" opacity="0.35" stroke="#00FF00" stroke-width="1" width="17.716535" x="747.637777" y="1066.535407" /><text fill="black" font-family="Verdana" font-size="15" stroke="black" stroke-width="0" x="751.1810839999999" y="1080.708635">test_task_order_1</text><text fill="purple" font-family="Verdana" font-size="10" stroke="black" stroke-width="0" x="751.1810839999999" y="1093.1102094999999">Rani / IT / Rohit</text></g><g id="Jenkins"><rect fill="#00FF00" height="28.346456" opacity="0.85" stroke="#00FF00" stroke-width="2" width="99.212596" x="747.637777" y="1101.968477" /><rect fill="#909090" height="10.629921" opacity="0.2" stroke="#00FF00" stroke-width="1" width="99.212596" x="747.637777" y="1119.685012" /><rect fill="#0000FF" height="14.173228" opacity="0.35" stroke="#00FF00" stroke-width="1" width="17.716535" x="747.637777" y="1101.968477" /><text fill="black" font-family="Verdana" font-size="15" stroke="black" stroke-width="0" x="751.1810839999999" y="1116.141705">Jenkins</text><text fill="purple" font-family="Verdana" font-size="10" stroke="black" stroke-width="0" x="751.1810839999999" y="1128.5432795">Rani / IT / Rohit / Ritesh</text></g><g id="Super_User_Creation"><rect fill="#00FF00" height="28.346456" opacity="0.85" stroke="#00FF00" stroke-width="2" width="99.212596" x="747.637777" y="1137.401547" /><rect fill="#909090" height="10.629921" opacity="0.2" stroke="#00FF00" stroke-width="1" width="99.212596" x="747.637777" y="1155.118082" /><rect fill="#0000FF" height="14.173228" opacity="0.35" stroke="#00FF00" stroke-width="1" width="17.716535" x="747.637777" y="1137.401547" /><text fill="black" font-family="Verdana" font-size="15" stroke="black" stroke-width="0" x="751.1810839999999" y="1151.574775">Super_User_Creation</text><text fill="purple" font-family="Verdana" font-size="10" stroke="black" stroke-width="0" x="751.1810839999999" y="1163.9763495">Rani / IT / Rohit</text></g><g><text fill="black" font-family="Verdana" font-size="18" stroke="black" stroke-width="0" x="10.629921" y="698.031479">IT</text></g><g /><g><rect fill="#AA0000" height="28.346456" opacity="0.65" stroke="#AA0000" stroke-width="1" width="14.173228" x="17.716535" y="676.7716369999999" /><rect fill="#AA0000" height="28.346456" opacity="0.65" stroke="#AA0000" stroke-width="1" width="14.173228" x="53.149605" y="676.7716369999999" /><rect fill="#AA0000" height="28.346456" opacity="0.65" stroke="#AA0000" stroke-width="1" width="14.173228" x="88.582675" y="676.7716369999999" /><rect fill="#AA0000" height="28.346456" opacity="0.65" stroke="#AA0000" stroke-width="1" width="14.173228" x="265.748025" y="676.7716369999999" /><rect fill="#AA0000" height="28.346456" opacity="0.65" stroke="#AA0000" stroke-width="1" width="14.173228" x="301.18109499999997" y="676.7716369999999" /><rect fill="#AA0000" height="28.346456" opacity="0.65" stroke="#AA0000" stroke-width="1" width="14.173228" x="336.614165" y="676.7716369999999" /><rect fill="#AA0000" height="28.346456" opacity="0.65" stroke="#AA0000" stroke-width="1" width="14.173228" x="513.779515" y="676.7716369999999" /><rect fill="#AA0000" height="28.346456" opacity="0.65" stroke="#AA0000" stroke-width="1" width="14.173228" x="549.212585" y="676.7716369999999" /><rect fill="#AA0000" height="28.346456" opacity="0.65" stroke="#AA0000" stroke-width="1" width="14.173228" x="584.645655" y="676.7716369999999" /><rect fill="#AA0000" height="28.346456" opacity="0.65" stroke="#AA0000" stroke-width="1" width="14.173228" x="620.078725" y="676.7716369999999" /><rect fill="#AA0000" height="28.346456" opacity="0.65" stroke="#AA0000" stroke-width="1" width="14.173228" x="655.511795" y="676.7716369999999" /><rect fill="#AA0000" height="28.346456" opacity="0.65" stroke="#AA0000" stroke-width="1" width="14.173228" x="761.811005" y="676.7716369999999" /><rect fill="#AA0000" height="28.346456" opacity="0.65" stroke="#AA0000" stroke-width="1" width="14.173228" x="797.244075" y="676.7716369999999" /><rect fill="#AA0000" height="28.346456" opacity="0.65" stroke="#AA0000" stroke-width="1" width="14.173228" x="832.677145" y="676.7716369999999" /></g><line stroke="black" x1="0.0" x2="1098.42517" y1="1169.29131" y2="1169.29131" /><g id="Jenkins"><rect fill="#FFFF00" height="28.346456" opacity="0.85" stroke="#FFFF00" stroke-width="2" width="99.212596" x="3.543307" y="1208.267687" /><rect fill="#909090" height="10.629921" opacity="0.2" stroke="#FFFF00" stroke-width="1" width="99.212596" x="3.543307" y="1225.984222" /><text fill="black" font-family="Verdana" font-size="15" stroke="black" stroke-width="0" x="7.086614" y="1222.440915">Jenkins</text><text fill="purple" font-family="Verdana" font-size="10" stroke="black" stroke-width="0" x="7.086614" y="1234.8424895">Rani / IT / Rohit</text></g><g id="Super_User_Creation"><rect fill="#FFFF00" height="28.346456" opacity="0.85" stroke="#FFFF00" stroke-width="2" width="99.212596" x="3.543307" y="1243.700757" /><rect fill="#909090" height="10.629921" opacity="0.2" stroke="#FFFF00" stroke-width="1" width="99.212596" x="3.543307" y="1261.417292" /><text fill="black" font-family="Verdana" font-size="15" stroke="black" stroke-width="0" x="7.086614" y="1257.873985">Super_User_Creation</text><text fill="purple" font-family="Verdana" font-size="10" stroke="black" stroke-width="0" x="7.086614" y="1270.2755595">Rani / IT / Rohit</text></g><g id="Firewall_access_for_package_installations"><rect fill="#FFFF00" height="28.346456" opacity="0.85" stroke="#FFFF00" stroke-width="2" width="99.212596" x="251.574797" y="1279.1338269999999" /><rect fill="#909090" height="10.629921" opacity="0.2" stroke="#FFFF00" stroke-width="1" width="99.212596" x="251.574797" y="1296.850362" /><text fill="black" font-family="Verdana" font-size="15" stroke="black" stroke-width="0" x="255.118104" y="1293.307055">Firewall_access_for_package_installations</text><text fill="purple" font-family="Verdana" font-size="10" stroke="black" stroke-width="0" x="255.118104" y="1305.7086295">Rani / IT / Rohit / Pratik / Abhijeet</text></g><g id="test_task_order_2"><rect fill="#FFFF00" height="28.346456" opacity="0.85" stroke="#FFFF00" stroke-width="2" width="170.078736" x="251.574797" y="1314.566897" /><rect fill="#909090" height="10.629921" opacity="0.2" stroke="#FFFF00" stroke-width="1" width="170.078736" x="251.574797" y="1332.283432" /><text fill="black" font-family="Verdana" font-size="15" stroke="black" stroke-width="0" x="255.118104" y="1328.740125">test_task_order_2</text><text fill="purple" font-family="Verdana" font-size="10" stroke="black" stroke-width="0" x="255.118104" y="1341.1416995">Rani / IT / Rohit</text></g><g id="test_task_order_2_second"><rect fill="#FFFF00" height="28.346456" opacity="0.85" stroke="#FFFF00" stroke-width="2" width="63.779526" x="251.574797" y="1349.999967" /><rect fill="#909090" height="10.629921" opacity="0.2" stroke="#FFFF00" stroke-width="1" width="63.779526" x="251.574797" y="1367.716502" /><text fill="black" font-family="Verdana" font-size="15" stroke="black" stroke-width="0" x="255.118104" y="1364.173195">test_task_order_2_second</text><text fill="purple" font-family="Verdana" font-size="10" stroke="black" stroke-width="0" x="255.118104" y="1376.5747695">Rani / IT / Rohit</text></g><g id="test_task_order_2_third"><rect fill="#FFFF00" height="28.346456" opacity="0.85" stroke="#FFFF00" stroke-width="2" width="63.779526" x="251.574797" y="1385.433037" /><rect fill="#909090" height="10.629921" opacity="0.2" stroke="#FFFF00" stroke-width="1" width="63.779526" x="251.574797" y="1403.149572" /><text fill="black" font-family="Verdana" font-size="15" stroke="black" stroke-width="0" x="255.118104" y="1399.606265">test_task_order_2_third</text><text fill="purple" font-family="Verdana" font-size="10" stroke="black" stroke-width="0" x="255.118104" y="1412.0078395">Rani / IT / Rohit</text></g><g id="test_task_order_3"><rect fill="#FFFF00" height="28.346456" opacity="0.85" stroke="#FFFF00" stroke-width="2" width="99.212596" x="499.606287" y="1420.866107" /><rect fill="#909090" height="10.629921" opacity="0.2" stroke="#FFFF00" stroke-width="1" width="99.212596" x="499.606287" y="1438.582642" /><rect fill="#0000FF" height="14.173228" opacity="0.35" stroke="#FFFF00" stroke-width="1" width="17.716535" x="499.606287" y="1420.866107" /><text fill="black" font-family="Verdana" font-size="15" stroke="black" stroke-width="0" x="503.149594" y="1435.039335">test_task_order_3</text><text fill="purple" font-family="Verdana" font-size="10" stroke="black" stroke-width="0" x="503.149594" y="1447.4409095">Rani / IT / Rohit</text></g><g id="test_task_order_3_second"><rect fill="#FFFF00" height="28.346456" opacity="0.85" stroke="#FFFF00" stroke-width="2" width="170.078736" x="499.606287" y="1456.299177" /><rect fill="#909090" height="10.629921" opacity="0.2" stroke="#FFFF00" stroke-width="1" width="170.078736" x="499.606287" y="1474.015712" /><rect fill="#0000FF" height="14.173228" opacity="0.35" stroke="#FFFF00" stroke-width="1" width="17.716535" x="499.606287" y="1456.299177" /><text fill="black" font-family="Verdana" font-size="15" stroke="black" stroke-width="0" x="503.149594" y="1470.472405">test_task_order_3_second</text><text fill="purple" font-family="Verdana" font-size="10" stroke="black" stroke-width="0" x="503.149594" y="1482.8739795">Rani / IT / Rohit</text></g><g id="test_task_order_4"><rect fill="#FFFF00" height="28.346456" opacity="0.85" stroke="#FFFF00" stroke-width="2" width="170.078736" x="605.905497" y="1491.732247" /><rect fill="#909090" height="10.629921" opacity="0.2" stroke="#FFFF00" stroke-width="1" width="170.078736" x="605.905497" y="1509.448782" /><text fill="black" font-family="Verdana" font-size="15" stroke="black" stroke-width="0" x="609.448804" y="1505.905475">test_task_order_4</text><text fill="purple" font-family="Verdana" font-size="10" stroke="black" stroke-width="0" x="609.448804" y="1518.3070495">Rani / IT / Rohit</text></g><g id="test_task_order_4_second"><rect fill="#FFFF00" height="28.346456" opacity="0.85" stroke="#FFFF00" stroke-width="2" width="170.078736" x="605.905497" y="1527.165317" /><rect fill="#909090" height="10.629921" opacity="0.2" stroke="#FFFF00" stroke-width="1" width="170.078736" x="605.905497" y="1544.881852" /><text fill="black" font-family="Verdana" font-size="15" stroke="black" stroke-width="0" x="609.448804" y="1541.338545">test_task_order_4_second</text><text fill="purple" font-family="Verdana" font-size="10" stroke="black" stroke-width="0" x="609.448804" y="1553.7401195">Rani / IT / Rohit</text></g><g id="test_task_order_1"><rect fill="#00FF00" height="28.346456" opacity="0.85" stroke="#00FF00" stroke-width="2" width="99.212596" x="747.637777" y="1562.598387" /><rect fill="#909090" height="10.629921" opacity="0.2" stroke="#00FF00" stroke-width="1" width="99.212596" x="747.637777" y="1580.314922" /><rect fill="#0000FF" height="14.173228" opacity="0.35" stroke="#00FF00" stroke-width="1" width="17.716535" x="747.637777" y="1562.598387" /><text fill="black" font-family="Verdana" font-size="15" stroke="black" stroke-width="0" x="751.1810839999999" y="1576.7716149999999">test_task_order_1</text><text fill="purple" font-family="Verdana" font-size="10" stroke="black" stroke-width="0" x="751.1810839999999" y="1589.1731895">Rani / IT / Rohit</text></g><g id="Jenkins"><rect fill="#00FF00" height="28.346456" opacity="0.85" stroke="#00FF00" stroke-width="2" width="99.212596" x="747.637777" y="1598.031457" /><rect fill="#909090" height="10.629921" opacity="0.2" stroke="#00FF00" stroke-width="1" width="99.212596" x="747.637777" y="1615.747992" /><rect fill="#0000FF" height="14.173228" opacity="0.35" stroke="#00FF00" stroke-width="1" width="17.716535" x="747.637777" y="1598.031457" /><text fill="black" font-family="Verdana" font-size="15" stroke="black" stroke-width="0" x="751.1810839999999" y="1612.204685">Jenkins</text><text fill="purple" font-family="Verdana" font-size="10" stroke="black" stroke-width="0" x="751.1810839999999" y="1624.6062595">Rani / IT / Rohit / Ritesh</text></g><g id="Super_User_Creation"><rect fill="#00FF00" height="28.346456" opacity="0.85" stroke="#00FF00" stroke-width="2" width="99.212596" x="747.637777" y="1633.464527" /><rect fill="#909090" height="10.629921" opacity="0.2" stroke="#00FF00" stroke-width="1" width="99.212596" x="747.637777" y="1651.1810619999999" /><rect fill="#0000FF" height="14.173228" opacity="0.35" stroke="#00FF00" stroke-width="1" width="17.716535" x="747.637777" y="1633.464527" /><text fill="black" font-family="Verdana" font-size="15" stroke="black" stroke-width="0" x="751.1810839999999" y="1647.637755">Super_User_Creation</text><text fill="purple" font-family="Verdana" font-size="10" stroke="black" stroke-width="0" x="751.1810839999999" y="1660.0393295">Rani / IT / Rohit</text></g><g><text fill="black" font-family="Verdana" font-size="18" stroke="black" stroke-width="0" x="10.629921" y="1194.094459">Rohit</text></g><g /><g><rect fill="#AA0000" height="28.346456" opacity="0.65" stroke="#AA0000" stroke-width="1" width="14.173228" x="17.716535" y="1172.834617" /><rect fill="#AA0000" height="28.346456" opacity="0.65" stroke="#AA0000" stroke-width="1" width="14.173228" x="53.149605" y="1172.834617" /><rect fill="#AA0000" height="28.346456" opacity="0.65" stroke="#AA0000" stroke-width="1" width="14.173228" x="88.582675" y="1172.834617" /><rect fill="#AA0000" height="28.346456" opacity="0.65" stroke="#AA0000" stroke-width="1" width="14.173228" x="265.748025" y="1172.834617" /><rect fill="#AA0000" height="28.346456" opacity="0.65" stroke="#AA0000" stroke-width="1" width="14.173228" x="301.18109499999997" y="1172.834617" /><rect fill="#AA0000" height="28.346456" opacity="0.65" stroke="#AA0000" stroke-width="1" width="14.173228" x="336.614165" y="1172.834617" /><rect fill="#AA0000" height="28.346456" opacity="0.65" stroke="#AA0000" stroke-width="1" width="14.173228" x="513.779515" y="1172.834617" /><rect fill="#AA0000" height="28.346456" opacity="0.65" stroke="#AA0000" stroke-width="1" width="14.173228" x="549.212585" y="1172.834617" /><rect fill="#AA0000" height="28.346456" opacity="0.65" stroke="#AA0000" stroke-width="1" width="14.173228" x="584.645655" y="1172.834617" /><rect fill="#AA0000" height="28.346456" opacity="0.65" stroke="#AA0000" stroke-width="1" width="14.173228" x="620.078725" y="1172.834617" /><rect fill="#AA0000" height="28.346456" opacity="0.65" stroke="#AA0000" stroke-width="1" width="14.173228" x="655.511795" y="1172.834617" /><rect fill="#AA0000" height="28.346456" opacity="0.65" stroke="#AA0000" stroke-width="1" width="14.173228" x="761.811005" y="1172.834617" /><rect fill="#AA0000" height="28.346456" opacity="0.65" stroke="#AA0000" stroke-width="1" width="14.173228" x="797.244075" y="1172.834617" /><rect fill="#AA0000" height="28.346456" opacity="0.65" stroke="#AA0000" stroke-width="1" width="14.173228" x="832.677145" y="1172.834617" /></g><line stroke="black" x1="0.0" x2="1098.42517" y1="1665.35429" y2="1665.35429" /><g id="Firewall_access_for_package_installations"><rect fill="#FFFF00" height="28.346456" opacity="0.85" stroke="#FFFF00" stroke-width="2" width="99.212596" x="251.574797" y="1704.330667" /><rect fill="#909090" height="10.629921" opacity="0.2" stroke="#FFFF00" stroke-width="1" width="99.212596" x="251.574797" y="1722.047202" /><text fill="black" font-family="Verdana" font-size="15" stroke="black" stroke-width="0" x="255.118104" y="1718.503895">Firewall_access_for_package_installations</text><text fill="purple" font-family="Verdana" font-size="10" stroke="black" stroke-width="0" x="255.118104" y="1730.9054695">Rani / IT / Rohit / Pratik / Abhijeet</text></g><g><text fill="black" font-family="Verdana" font-size="18" stroke="black" stroke-width="0" x="10.629921" y="1690.157439">Pratik</text></g><g /><g /><line stroke="black" x1="0.0" x2="1098.42517" y1="1736.22043" y2="1736.22043" /><g id="Firewall_access_for_package_installations"><rect fill="#FFFF00" height="28.346456" opacity="0.85" stroke="#FFFF00" stroke-width="2" width="99.212596" x="251.574797" y="1775.196807" /><rect fill="#909090" height="10.629921" opacity="0.2" stroke="#FFFF00" stroke-width="1" width="99.212596" x="251.574797" y="1792.913342" /><text fill="black" font-family="Verdana" font-size="15" stroke="black" stroke-width="0" x="255.118104" y="1789.370035">Firewall_access_for_package_installations</text><text fill="purple" font-family="Verdana" font-size="10" stroke="black" stroke-width="0" x="255.118104" y="1801.7716095">Rani / IT / Rohit / Pratik / Abhijeet</text></g><g><text fill="black" font-family="Verdana" font-size="18" stroke="black" stroke-width="0" x="10.629921" y="1761.023579">Abhijeet</text></g><g /><g /><line stroke="black" x1="0.0" x2="1098.42517" y1="1807.08657" y2="1807.08657" /><g id="Jenkins"><rect fill="#00FF00" height="28.346456" opacity="0.85" stroke="#00FF00" stroke-width="2" width="99.212596" x="747.637777" y="1846.062947" /><rect fill="#909090" height="10.629921" opacity="0.2" stroke="#00FF00" stroke-width="1" width="99.212596" x="747.637777" y="1863.779482" /><rect fill="#0000FF" height="14.173228" opacity="0.35" stroke="#00FF00" stroke-width="1" width="17.716535" x="747.637777" y="1846.062947" /><text fill="black" font-family="Verdana" font-size="15" stroke="black" stroke-width="0" x="751.1810839999999" y="1860.236175">Jenkins</text><text fill="purple" font-family="Verdana" font-size="10" stroke="black" stroke-width="0" x="751.1810839999999" y="1872.6377495">Rani / IT / Rohit / Ritesh</text></g><g><text fill="black" font-family="Verdana" font-size="18" stroke="black" stroke-width="0" x="10.629921" y="1831.889719">Ritesh</text></g><g /><g /><line stroke="black" x1="0.0" x2="1098.42517" y1="1877.95271" y2="1877.95271" /></g></svg>